<?xml version="1.0" encoding="utf-8"?>
<!-- Generator: Adobe Illustrator 28.1.0, SVG Export Plug-In . SVG Version: 6.00 Build 0)  -->
<svg version="1.1" id="Layer_1" xmlns="http://www.w3.org/2000/svg" xmlns:xlink="http://www.w3.org/1999/xlink" x="0px" y="0px"
	 viewBox="0 0 1000 195.37" style="enable-background:new 0 0 1000 195.37;" xml:space="preserve">
<style type="text/css">
	.st0{fill:#FFFFFF;}
</style>
<g>
	<path class="st0" d="M325.15,51.91c-28.67,0-51.91,23.24-51.91,51.91s23.24,51.91,51.91,51.91s51.91-23.24,51.91-51.91
		S353.82,51.91,325.15,51.91z M325.15,135.89c-17.72,0-32.08-14.36-32.08-32.08s14.36-32.08,32.08-32.08s32.08,14.36,32.08,32.08
		S342.87,135.89,325.15,135.89z"/>
	<path class="st0" d="M441.49,19.83V0c-28.67,0-51.91,23.24-51.91,51.91l0,0v19.83v83.98h19.83V71.73h32.08V51.91h-32.08l0,0
		C409.41,34.19,423.77,19.83,441.49,19.83z"/>
	<path class="st0" d="M216.18,103.81L216.18,103.81v51.91h19.83v-51.91c0-17.72,14.36-32.08,32.08-32.08V51.91
		C239.42,51.91,216.18,75.14,216.18,103.81z"/>
	<path class="st0" d="M558.05,103.81L558.05,103.81L558.05,103.81v-51.9h-19.83v51.91c0,17.71-14.36,32.07-32.08,32.07
		c-17.72,0-32.08-14.36-32.08-32.08l0,0v-51.9h-19.83v51.91l0,0c0,28.67,23.24,51.91,51.91,51.91c12.09,0,23.22-4.14,32.05-11.07
		c-0.62,17.17-14.73,30.9-32.05,30.9c-11.69,0-22.64-3.13-32.08-8.58v22.07c9.88,4.09,20.72,6.35,32.08,6.35
		c28.67,0,51.91-23.24,51.91-51.91l0,0L558.05,103.81L558.05,103.81z"/>
	<path class="st0" d="M202.8,113.72c0.62-3.21,0.94-6.52,0.94-9.91c0-3.39-0.33-6.7-0.95-9.91c-4.63-23.92-25.68-41.99-50.96-41.99
		S105.5,69.98,100.87,93.9c-0.62,3.21-0.95,6.52-0.95,9.91c0,3.39,0.33,6.7,0.94,9.91c4.63,23.92,25.68,41.99,50.96,41.99
		c0.54,0,1.09-0.01,1.63-0.03c14.69-0.28,28.45-4.32,40.37-11.21l-5.47-10.93l-3.42-6.85c-9.52,5.74-20.64,9.08-32.53,9.19h-0.11
		c-0.15,0-0.31,0-0.46,0l0,0c-14.26,0-26.34-9.3-30.51-22.16h61.03H202.8z M121.32,93.9c4.17-12.86,16.26-22.16,30.51-22.16
		c14.26,0,26.34,9.3,30.52,22.16C182.35,93.9,121.32,93.9,121.32,93.9z"/>
	<polygon class="st0" points="103.81,51.91 81.64,51.91 51.91,111.38 22.17,51.91 0,51.91 51.91,155.72 51.91,155.72 51.91,155.72 	
		"/>
	<g>
		<path class="st0" d="M561.09,24.43c0-14.41,9.6-24.43,24-24.43c14.41,0,24,10.03,24,24.43s-9.6,24.43-24,24.43
			C570.69,48.87,561.09,38.84,561.09,24.43z M585.09,44.35c11.58,0,18.93-8.04,18.93-19.91s-7.35-19.91-18.93-19.91
			s-18.93,8.04-18.93,19.91C566.16,36.28,573.51,44.35,585.09,44.35z M576.05,11.3h9.88c5.94,0,9.6,2.82,9.6,8.47
			c0,3.81-2.39,6.99-6.08,8.33l4.38,5.22c1.48,1.77,3.4,3.73,4.24,4.52h-5.94c-0.5-0.43-1.41-1.48-2.54-2.82l-5.07-6.22h-1.12h-2.25
			v9.05h-5.07V11.3H576.05z M585.64,24.58c3.11,0,4.81-2.25,4.81-4.67c0-2.97-1.41-4.67-4.52-4.67h-4.81v9.31h4.52V24.58z"/>
	</g>
	<circle class="st0" cx="583.86" cy="145.8" r="9.91"/>
	<g>
		<path class="st0" d="M618.15,153.35c-3.44-1.48-6.16-3.54-8.15-6.19c-2-2.65-3.1-5.69-3.3-9.13h9.7c0.27,2.82,1.6,5.13,3.97,6.91
			c2.37,1.79,5.49,2.68,9.34,2.68c3.58,0,6.4-0.79,8.46-2.37s3.1-3.58,3.1-5.99c0-2.48-1.1-4.32-3.3-5.52s-5.61-2.39-10.22-3.56
			c-4.2-1.1-7.62-2.22-10.27-3.35s-4.92-2.82-6.81-5.06s-2.84-5.18-2.84-8.82c0-2.89,0.86-5.54,2.58-7.95
			c1.72-2.41,4.16-4.32,7.33-5.73c3.16-1.41,6.78-2.12,10.84-2.12c6.26,0,11.32,1.58,15.17,4.75s5.92,7.5,6.19,13h-9.39
			c-0.2-2.96-1.39-5.33-3.56-7.12s-5.07-2.68-8.72-2.68c-3.37,0-6.06,0.72-8.05,2.17c-2,1.44-2.99,3.34-2.99,5.68
			c0,1.86,0.6,3.39,1.81,4.59c1.2,1.2,2.72,2.17,4.54,2.89s4.35,1.53,7.59,2.43c4.06,1.1,7.36,2.19,9.91,3.25
			c2.55,1.07,4.73,2.67,6.55,4.8c1.82,2.13,2.77,4.92,2.84,8.36c0,3.1-0.86,5.88-2.58,8.36c-1.72,2.48-4.15,4.42-7.27,5.83
			c-3.13,1.41-6.73,2.12-10.79,2.12C625.47,155.57,621.59,154.83,618.15,153.35z"/>
		<path class="st0" d="M713.82,98.09v56.56h-9.39v-8.36c-1.79,2.89-4.28,5.14-7.48,6.76c-3.2,1.62-6.73,2.43-10.58,2.43
			c-4.4,0-8.36-0.91-11.87-2.74c-3.51-1.82-6.28-4.56-8.31-8.2c-2.03-3.65-3.04-8.08-3.04-13.31V98.09h9.29v31.89
			c0,5.57,1.41,9.86,4.23,12.85s6.67,4.49,11.56,4.49c5.02,0,8.98-1.55,11.87-4.64c2.89-3.1,4.33-7.6,4.33-13.52V98.09H713.82z"/>
		<path class="st0" d="M747.41,100.41c3.68-2.17,7.96-3.25,12.85-3.25c5.02,0,9.58,1.2,13.67,3.61c4.09,2.41,7.31,5.8,9.65,10.17
			c2.34,4.37,3.51,9.44,3.51,15.22c0,5.71-1.17,10.8-3.51,15.27s-5.56,7.95-9.65,10.42s-8.65,3.72-13.67,3.72
			c-4.82,0-9.07-1.08-12.75-3.25s-6.49-4.87-8.41-8.1v37.26h-9.39V98.09h9.39v10.42C740.96,105.28,743.73,102.58,747.41,100.41z
			 M774.91,115.01c-1.72-3.16-4.04-5.57-6.97-7.22s-6.14-2.48-9.65-2.48c-3.44,0-6.62,0.84-9.55,2.53s-5.26,4.13-7.02,7.33
			c-1.75,3.2-2.63,6.9-2.63,11.09c0,4.27,0.88,8,2.63,11.2s4.09,5.64,7.02,7.33c2.92,1.69,6.1,2.53,9.55,2.53
			c3.51,0,6.72-0.84,9.65-2.53c2.92-1.68,5.25-4.13,6.97-7.33s2.58-6.97,2.58-11.3C777.49,121.89,776.63,118.18,774.91,115.01z"/>
		<path class="st0" d="M817.17,100.41c3.68-2.17,7.96-3.25,12.85-3.25c5.02,0,9.58,1.2,13.67,3.61c4.09,2.41,7.31,5.8,9.65,10.17
			c2.34,4.37,3.51,9.44,3.51,15.22c0,5.71-1.17,10.8-3.51,15.27s-5.56,7.95-9.65,10.42s-8.65,3.72-13.67,3.72
			c-4.82,0-9.07-1.08-12.75-3.25s-6.49-4.87-8.41-8.1v37.26h-9.39V98.09h9.39v10.42C810.72,105.28,813.49,102.58,817.17,100.41z
			 M844.68,115.01c-1.72-3.16-4.04-5.57-6.97-7.22s-6.14-2.48-9.65-2.48c-3.44,0-6.62,0.84-9.55,2.53s-5.26,4.13-7.02,7.33
			c-1.75,3.2-2.63,6.9-2.63,11.09c0,4.27,0.88,8,2.63,11.2s4.09,5.64,7.02,7.33c2.92,1.69,6.1,2.53,9.55,2.53
			c3.51,0,6.72-0.84,9.65-2.53c2.92-1.68,5.25-4.13,6.97-7.33s2.58-6.97,2.58-11.3C847.26,121.89,846.4,118.18,844.68,115.01z"/>
		<path class="st0" d="M879.51,151.96c-4.3-2.41-7.67-5.83-10.11-10.27s-3.66-9.58-3.66-15.43c0-5.78,1.26-10.89,3.77-15.33
			s5.93-7.84,10.27-10.22c4.33-2.37,9.19-3.56,14.55-3.56s10.22,1.19,14.55,3.56c4.34,2.37,7.76,5.76,10.27,10.17
			c2.51,4.4,3.77,9.53,3.77,15.38c0,5.85-1.29,10.99-3.87,15.43s-6.07,7.86-10.47,10.27c-4.4,2.41-9.29,3.61-14.66,3.61
			C888.61,155.57,883.81,154.37,879.51,151.96z M903.4,144.94c2.96-1.58,5.35-3.96,7.17-7.12c1.82-3.16,2.73-7.02,2.73-11.56
			c0-4.54-0.89-8.39-2.68-11.56c-1.79-3.16-4.13-5.52-7.02-7.07s-6.02-2.32-9.39-2.32c-3.44,0-6.59,0.77-9.44,2.32
			c-2.86,1.55-5.14,3.91-6.86,7.07c-1.72,3.17-2.58,7.02-2.58,11.56c0,4.61,0.84,8.5,2.53,11.66c1.68,3.17,3.94,5.52,6.76,7.07
			s5.92,2.32,9.29,2.32C897.28,147.31,900.44,146.52,903.4,144.94z"/>
		<path class="st0" d="M951.75,99.74c3.06-1.79,6.79-2.68,11.2-2.68v9.7h-2.48c-10.53,0-15.79,5.71-15.79,17.13v30.75h-9.39V98.09
			h9.39v9.19C946.33,104.04,948.69,101.53,951.75,99.74z"/>
		<path class="st0" d="M985.24,105.83v33.34c0,2.75,0.58,4.7,1.75,5.83c1.17,1.14,3.2,1.7,6.09,1.7h6.91v7.95h-8.46
			c-5.23,0-9.15-1.2-11.76-3.61c-2.62-2.41-3.92-6.36-3.92-11.87v-33.34h-7.33v-7.74h7.33V83.84h9.39v14.24H1000v7.74h-14.76V105.83
			z"/>
	</g>
</g>
</svg>
