<?xml version="1.0" encoding="UTF-8"?>
<svg id="Vrstva_2" data-name="Vrstva 2" xmlns="http://www.w3.org/2000/svg" viewBox="0 0 192.12 42.72">
  <defs>
    <style>
      .cls-1 {
        fill: #fff;
      }
    </style>
  </defs>
  <g id="Layer_2" data-name="Layer 2">
    <g>
      <path class="cls-1" d="m23.48,21.65c0,.26-.09.47-.26.64-.18.17-.38.25-.61.25-.18,0-.35-.06-.5-.17-.15-.11-.27-.26-.36-.46l-1.21-2.86h-6.02l-1.19,2.88c-.07.19-.17.34-.32.45-.15.1-.31.16-.5.16-.27,0-.48-.07-.62-.21-.14-.14-.21-.34-.21-.58,0-.05.01-.16.04-.31l4.97-12.04c.09-.21.22-.37.38-.48.16-.11.35-.15.56-.13.19,0,.37.05.53.16.16.1.27.25.33.45l4.95,11.89c.04.12.06.24.06.37Zm-8.22-4.36h4.54l-2.28-5.46-2.26,5.46Z"/>
      <path class="cls-1" d="m35.77,10.43c0,.23-.08.45-.23.64-.16.21-.37.31-.64.31-.18,0-.36-.05-.53-.14-.81-.45-1.68-.68-2.61-.68s-1.84.21-2.58.64c-.75.43-1.33,1.03-1.74,1.8-.42.77-.62,1.66-.62,2.66,0,1.08.21,2.01.64,2.79.43.78,1.02,1.37,1.77,1.78.75.41,1.6.61,2.53.61s1.83-.23,2.61-.7c.16-.08.32-.12.51-.12.29,0,.51.11.68.33.16.19.23.4.23.62,0,.16-.04.3-.13.44-.08.14-.2.24-.34.32-.51.29-1.08.51-1.71.68-.63.17-1.25.25-1.86.25-1.26,0-2.42-.28-3.48-.84-1.06-.56-1.9-1.37-2.53-2.44-.63-1.06-.95-2.31-.95-3.74,0-1.31.3-2.5.91-3.56.6-1.06,1.44-1.89,2.49-2.49,1.06-.6,2.24-.91,3.56-.91s2.44.31,3.55.94c.31.17.47.43.47.78Z"/>
      <path class="cls-1" d="m47.76,9.1c.18.16.26.38.26.65s-.09.49-.26.64c-.18.16-.4.23-.67.23h-3.47v10.93c0,.26-.09.48-.28.66-.19.18-.43.27-.71.27s-.52-.09-.71-.27c-.19-.18-.28-.4-.28-.66v-10.93h-3.45c-.27,0-.5-.08-.67-.24-.18-.16-.26-.38-.26-.65s.09-.47.26-.63c.18-.16.4-.24.67-.24h8.91c.27,0,.5.08.67.24Z"/>
      <path class="cls-1" d="m52.14,22.22c-.19.18-.42.27-.68.27-.29,0-.52-.09-.69-.27-.18-.18-.26-.41-.26-.68v-11.75c0-.26.09-.48.27-.66.18-.18.42-.27.7-.27.26,0,.48.09.67.27.19.18.28.4.28.66v11.75c0,.27-.1.5-.29.68Z"/>
      <path class="cls-1" d="m66.49,9.09c.19.17.28.38.28.62,0,.13-.03.27-.1.43l-4.97,11.75c-.09.19-.22.34-.39.45-.17.1-.34.16-.53.16-.17-.01-.33-.07-.48-.17-.15-.1-.27-.24-.36-.42l-4.97-11.77c-.05-.1-.08-.24-.08-.41,0-.27.1-.49.29-.66.19-.17.41-.25.64-.25.39,0,.68.21.86.62l4.25,10.04,4.01-10.05c.09-.18.21-.32.36-.43.15-.1.31-.16.5-.16.26,0,.48.08.67.25Z"/>
      <path class="cls-1" d="m77.62,20.97c.18.18.26.4.26.64,0,.26-.09.47-.26.63-.18.16-.4.24-.67.24h-6.78c-.26,0-.48-.09-.66-.27-.18-.18-.27-.4-.27-.66v-11.77c0-.26.09-.48.27-.66.18-.18.4-.27.66-.27h6.78c.27,0,.5.08.67.25.18.17.26.39.26.66s-.09.47-.26.63c-.18.16-.4.24-.67.24h-5.79v3.98h4.91c.27,0,.5.08.67.25.18.17.26.38.26.64,0,.27-.09.49-.26.64-.18.16-.4.23-.67.23h-4.91v4.31h5.79c.27,0,.5.09.67.27Z"/>
      <path class="cls-1" d="m95.69,22.35c-.99-.36-1.93-.95-2.82-1.75-.37-.32-.55-.68-.55-1.08,0-.32.12-.6.37-.86.25-.25.54-.38.87-.38.3,0,.55.1.77.29.7.65,1.43,1.13,2.18,1.44.75.31,1.6.46,2.55.46,1.11,0,2.04-.25,2.81-.77.77-.51,1.15-1.15,1.15-1.93-.02-.91-.4-1.62-1.15-2.12-.75-.5-1.89-.92-3.42-1.25-1.81-.37-3.21-.98-4.18-1.82s-1.46-2.01-1.46-3.51c0-1.04.27-1.95.82-2.73.54-.78,1.3-1.39,2.27-1.81.97-.42,2.06-.63,3.27-.63,1.09,0,2.12.18,3.09.53.97.35,1.75.82,2.35,1.4.4.35.61.73.61,1.13,0,.32-.12.6-.36.84-.24.25-.52.37-.86.37-.25,0-.45-.07-.61-.21-.46-.46-1.09-.84-1.9-1.16-.81-.32-1.58-.47-2.32-.47-1.18,0-2.12.24-2.81.73-.7.48-1.04,1.12-1.04,1.91,0,.86.35,1.52,1.04,1.98.69.46,1.73.84,3.1,1.16,1.37.3,2.49.65,3.36,1.06.87.4,1.54.97,2.02,1.69.47.72.71,1.66.71,2.82,0,1.02-.29,1.93-.86,2.72-.57.79-1.35,1.41-2.33,1.85-.99.44-2.07.66-3.25.66-1.28,0-2.42-.18-3.4-.54Z"/>
      <path class="cls-1" d="m120.06,9.17c.24.25.36.55.36.9v7.02c0,1.83-.51,3.25-1.52,4.26s-2.44,1.52-4.29,1.52-3.25-.51-4.25-1.52c-1-1.01-1.5-2.43-1.5-4.26v-7.02c0-.35.12-.65.36-.9.24-.25.53-.37.88-.37.37,0,.67.12.91.37.24.25.36.55.36.9v7.02c0,2.3,1.08,3.46,3.25,3.46,1.07,0,1.89-.29,2.45-.87.56-.58.84-1.44.84-2.59v-7.02c0-.35.12-.65.36-.9.24-.25.53-.37.88-.37s.67.12.91.37Z"/>
      <path class="cls-1" d="m134.66,9.47c.97.61,1.73,1.46,2.28,2.55.55,1.09.83,2.32.83,3.69s-.28,2.6-.83,3.68c-.55,1.08-1.31,1.93-2.28,2.55-.97.62-2.03.92-3.19.92-.91,0-1.77-.2-2.56-.61-.79-.4-1.43-.9-1.93-1.48v5.86c0,.35-.12.65-.36.9-.24.25-.54.37-.91.37s-.65-.12-.88-.36c-.24-.24-.36-.54-.36-.91V10.04c0-.37.11-.68.34-.92.23-.25.53-.37.9-.37s.67.12.91.37c.24.25.36.55.36.92v.77c.42-.62,1.04-1.14,1.85-1.58.81-.44,1.67-.66,2.59-.66,1.2,0,2.28.3,3.25.91Zm-1.35,10.43c.65-.42,1.16-1,1.52-1.73.36-.73.54-1.55.54-2.47s-.18-1.74-.54-2.47c-.36-.73-.87-1.31-1.52-1.73-.65-.42-1.38-.63-2.19-.63s-1.57.21-2.22.62c-.65.41-1.16.99-1.52,1.73-.36.74-.54,1.57-.54,2.48s.18,1.74.54,2.48c.36.74.87,1.32,1.52,1.73.65.41,1.39.62,2.22.62s1.54-.21,2.19-.63Z"/>
      <path class="cls-1" d="m151.17,9.47c.97.61,1.73,1.46,2.28,2.55.55,1.09.83,2.32.83,3.69s-.28,2.6-.83,3.68c-.55,1.08-1.31,1.93-2.28,2.55-.97.62-2.03.92-3.19.92-.91,0-1.77-.2-2.56-.61-.79-.4-1.43-.9-1.93-1.48v5.86c0,.35-.12.65-.36.9-.24.25-.54.37-.91.37s-.65-.12-.88-.36c-.24-.24-.36-.54-.36-.91V10.04c0-.37.11-.68.34-.92.23-.25.53-.37.9-.37s.67.12.91.37c.24.25.36.55.36.92v.77c.42-.62,1.04-1.14,1.85-1.58.81-.44,1.67-.66,2.59-.66,1.2,0,2.28.3,3.25.91Zm-1.35,10.43c.65-.42,1.16-1,1.52-1.73.36-.73.54-1.55.54-2.47s-.18-1.74-.54-2.47c-.36-.73-.87-1.31-1.52-1.73s-1.38-.63-2.19-.63-1.57.21-2.22.62c-.65.41-1.16.99-1.52,1.73-.36.74-.54,1.57-.54,2.48s.18,1.74.54,2.48c.36.74.87,1.32,1.52,1.73.65.41,1.39.62,2.22.62s1.54-.21,2.19-.63Z"/>
      <path class="cls-1" d="m169.67,19.4c-.62,1.09-1.46,1.94-2.52,2.56-1.06.62-2.24.92-3.52.92s-2.46-.31-3.52-.92c-1.06-.62-1.9-1.47-2.52-2.56-.62-1.09-.92-2.32-.92-3.69s.31-2.61.92-3.72c.62-1.11,1.45-1.97,2.52-2.59,1.06-.62,2.24-.92,3.52-.92s2.46.31,3.52.92c1.06.62,1.9,1.48,2.52,2.59.62,1.11.92,2.35.92,3.72s-.31,2.6-.92,3.69Zm-2.18-6.24c-.4-.75-.93-1.33-1.61-1.74-.68-.41-1.43-.62-2.26-.62s-1.58.21-2.26.62c-.68.41-1.21.99-1.61,1.74-.4.75-.59,1.6-.59,2.55s.2,1.77.59,2.51c.4.74.93,1.31,1.61,1.73.68.41,1.43.62,2.26.62s1.58-.21,2.26-.62c.68-.41,1.21-.99,1.61-1.73.4-.74.59-1.57.59-2.51s-.2-1.8-.59-2.55Z"/>
      <path class="cls-1" d="m181.88,8.84c.33.24.5.53.5.88,0,.42-.11.74-.33.96-.22.22-.49.33-.8.33-.16,0-.4-.05-.71-.16-.37-.12-.66-.18-.87-.18-.55,0-1.08.19-1.6.57-.52.38-.94.9-1.27,1.56-.33.66-.49,1.39-.49,2.2v6.36c0,.35-.12.65-.36.9-.24.25-.54.37-.91.37s-.67-.12-.9-.36c-.23-.24-.34-.54-.34-.91v-11.29c0-.35.12-.65.36-.9.24-.25.53-.37.88-.37.37,0,.67.12.91.37.24.25.36.55.36.9v1.35c.39-.86.97-1.56,1.74-2.1.77-.54,1.65-.81,2.64-.83.46,0,.85.12,1.19.36Z"/>
      <path class="cls-1" d="m188.77,11.25v7.86c0,.88.4,1.32,1.19,1.32.12,0,.29-.03.5-.09.21-.06.38-.09.5-.09.23,0,.42.1.58.29.16.19.24.44.24.74,0,.37-.21.69-.63.95-.42.26-.9.4-1.42.4-.58,0-1.11-.06-1.6-.18-.48-.12-.91-.44-1.29-.94-.38-.5-.57-1.26-.57-2.28v-7.97h-1.53c-.33,0-.61-.11-.83-.33-.22-.22-.33-.5-.33-.83s.11-.61.33-.82c.22-.21.5-.32.83-.32h1.53v-2.22c0-.35.12-.65.36-.9.24-.25.54-.37.91-.37s.65.12.88.37c.24.25.36.55.36.9v2.22h2.19c.33,0,.61.11.83.33.22.22.33.5.33.83s-.11.61-.33.82c-.22.21-.5.32-.83.32h-2.19Z"/>
      <path class="cls-1" d="m13.05,42.72l-.51-11.19h-3.97c-4.73,0-8.58-3.85-8.58-8.58v-14.39C0,3.85,3.85,0,8.58,0h70.59c4.73,0,8.58,3.85,8.58,8.57v14.39c0,4.73-3.85,8.58-8.58,8.58H24.58l-11.53,11.19ZM8.58,3.12c-3.01,0-5.45,2.45-5.45,5.45v14.39c0,3.01,2.45,5.45,5.45,5.45h6.95l.33,7.24,7.46-7.24h55.85c3.01,0,5.45-2.45,5.45-5.45v-14.39c0-3.01-2.45-5.45-5.45-5.45H8.58Z"/>
    </g>
  </g>
</svg>