<?xml version="1.0" encoding="UTF-8"?>
<!DOCTYPE svg PUBLIC "-//W3C//DTD SVG 1.1//EN" "http://www.w3.org/Graphics/SVG/1.1/DTD/svg11.dtd">
<svg xmlns="http://www.w3.org/2000/svg" version="1.1" width="1000px" height="196px" style="shape-rendering:geometricPrecision; text-rendering:geometricPrecision; image-rendering:optimizeQuality; fill-rule:evenodd; clip-rule:evenodd" xmlns:xlink="http://www.w3.org/1999/xlink">
<g><path style="opacity:0.958" fill="#fefffe" d="M 431.5,-0.5 C 434.833,-0.5 438.167,-0.5 441.5,-0.5C 441.5,6.5 441.5,13.5 441.5,20.5C 422.349,21.9829 411.683,32.3162 409.5,51.5C 420.167,51.5 430.833,51.5 441.5,51.5C 441.5,58.1667 441.5,64.8333 441.5,71.5C 430.833,71.5 420.167,71.5 409.5,71.5C 409.5,99.5 409.5,127.5 409.5,155.5C 402.5,155.5 395.5,155.5 388.5,155.5C 388.036,116.466 388.536,77.4656 390,38.5C 396.638,17.6918 410.471,4.69179 431.5,-0.5 Z"/></g>
<g><path style="opacity:0.734" fill="#fefffe" d="M 569.5,27.5 C 579.353,27.8408 582.853,32.8408 580,42.5C 576.34,46.3674 571.84,47.534 566.5,46C 562.633,42.3398 561.466,37.8398 563,32.5C 564.805,30.1743 566.972,28.5077 569.5,27.5 Z M 575.5,32.5 C 572.833,32.5 570.167,32.5 567.5,32.5C 570.167,29.8333 572.833,29.8333 575.5,32.5 Z M 567.5,32.5 C 567.5,35.8333 567.5,39.1667 567.5,42.5C 566.06,41.0539 565.393,39.2206 565.5,37C 565.307,34.9919 565.974,33.4919 567.5,32.5 Z M 575.5,32.5 C 578.663,35.1688 578.997,38.1688 576.5,41.5C 575.713,40.7579 575.047,39.9246 574.5,39C 575.423,36.9592 575.756,34.7925 575.5,32.5 Z M 570.5,34.5 C 572.337,34.6395 572.67,35.3061 571.5,36.5C 570.702,36.0431 570.369,35.3764 570.5,34.5 Z M 567.5,42.5 C 568.5,42.5 569.5,42.5 570.5,42.5C 570.351,41.448 570.517,40.448 571,39.5C 571.979,41.3203 573.479,42.487 575.5,43C 572.587,45.0911 569.92,44.9244 567.5,42.5 Z"/></g>
<g><path style="opacity:0.948" fill="#fefffe" d="M -0.5,51.5 C 7.41971,51.185 15.253,51.5183 23,52.5C 32.2445,71.3227 41.7445,89.9893 51.5,108.5C 61.2555,89.9893 70.7555,71.3227 80,52.5C 87.7749,51.1862 95.6083,51.1862 103.5,52.5C 86.4223,86.9889 69.089,121.322 51.5,155.5C 33.8984,121.963 16.5651,88.2966 -0.5,54.5C -0.5,53.5 -0.5,52.5 -0.5,51.5 Z"/></g>
<g><path style="opacity:0.966" fill="#fefffe" d="M 141.5,51.5 C 168.552,48.7694 188.052,59.4361 200,83.5C 203.246,92.9148 204.246,102.581 203,112.5C 175.905,113.329 148.739,113.829 121.5,114C 131.408,132.942 146.741,139.275 167.5,133C 173.389,131.264 178.889,128.764 184,125.5C 187.557,131.448 190.724,137.614 193.5,144C 184.817,150.009 175.15,153.676 164.5,155C 125.743,159.137 103.743,141.971 98.5,103.5C 100.548,75.8022 114.881,58.4689 141.5,51.5 Z M 149.5,71.5 C 164.937,71.973 175.27,79.3063 180.5,93.5C 160.831,93.6666 141.164,93.5 121.5,93C 126.999,80.7597 136.332,73.593 149.5,71.5 Z"/></g>
<g><path style="opacity:0.956" fill="#fefffe" d="M 257.5,51.5 C 261.167,51.5 264.833,51.5 268.5,51.5C 268.5,58.1667 268.5,64.8333 268.5,71.5C 254.08,72.4338 243.913,79.4338 238,92.5C 236.546,113.446 236.046,134.446 236.5,155.5C 229.5,155.5 222.5,155.5 215.5,155.5C 215.333,134.831 215.5,114.164 216,93.5C 221.357,70.9773 235.19,56.9773 257.5,51.5 Z"/></g>
<g><path style="opacity:0.956" fill="#fefffe" d="M 314.5,51.5 C 351.723,49.2682 372.723,66.6015 377.5,103.5C 372.747,140.543 351.747,157.71 314.5,155C 284.208,146.278 270.374,126.111 273,94.5C 277.898,71.4369 291.731,57.1036 314.5,51.5 Z M 323.5,71.5 C 343.052,73.3859 354.052,84.0525 356.5,103.5C 354.193,122.473 343.527,133.14 324.5,135.5C 298.903,130.73 289.403,115.73 296,90.5C 301.798,79.1895 310.964,72.8562 323.5,71.5 Z"/></g>
<g><path style="opacity:0.959" fill="#fefffe" d="M 513.5,195.5 C 507.5,195.5 501.5,195.5 495.5,195.5C 488.398,194.304 481.398,192.304 474.5,189.5C 473.167,181.833 473.167,174.167 474.5,166.5C 489.232,175.043 504.566,176.543 520.5,171C 530.204,165.643 535.371,157.477 536,146.5C 520.896,155.871 504.73,158.038 487.5,153C 469.147,145.47 457.981,131.97 454,112.5C 453.5,92.1694 453.333,71.8361 453.5,51.5C 460.5,51.5 467.5,51.5 474.5,51.5C 474.046,72.5536 474.546,93.5536 476,114.5C 486.577,134.47 502.077,139.637 522.5,130C 530.764,124.309 535.597,116.476 537,106.5C 537.5,88.1697 537.667,69.8364 537.5,51.5C 544.5,51.5 551.5,51.5 558.5,51.5C 558.667,82.8351 558.5,114.168 558,145.5C 555.275,173.053 540.442,189.719 513.5,195.5 Z"/></g>
<g><path style="opacity:0.887" fill="#fefffe" d="M 999.5,97.5 C 999.5,100.5 999.5,103.5 999.5,106.5C 994.833,106.5 990.167,106.5 985.5,106.5C 985.333,118.505 985.5,130.505 986,142.5C 986.5,143.667 987.333,144.5 988.5,145C 992.152,145.499 995.818,145.665 999.5,145.5C 999.5,148.5 999.5,151.5 999.5,154.5C 994.156,154.666 988.823,154.499 983.5,154C 977.998,152.162 975.165,148.329 975,142.5C 974.5,130.505 974.333,118.505 974.5,106.5C 972.167,106.5 969.833,106.5 967.5,106.5C 967.5,103.5 967.5,100.5 967.5,97.5C 969.833,97.5 972.167,97.5 974.5,97.5C 974.5,92.8333 974.5,88.1667 974.5,83.5C 978.167,83.5 981.833,83.5 985.5,83.5C 985.5,88.1667 985.5,92.8333 985.5,97.5C 990.167,97.5 994.833,97.5 999.5,97.5 Z"/></g>
<g><path style="opacity:0.898" fill="#fefffe" d="M 621.5,96.5 C 628.877,95.6893 635.877,96.856 642.5,100C 647.695,103.889 650.029,109.056 649.5,115.5C 646.167,115.5 642.833,115.5 639.5,115.5C 636.582,105.715 630.249,102.881 620.5,107C 616.5,110.667 616.5,114.333 620.5,118C 626.952,120.928 633.618,123.262 640.5,125C 648.564,128.629 651.731,134.795 650,143.5C 645.758,152.126 638.758,156.126 629,155.5C 615.984,156.092 608.151,150.092 605.5,137.5C 609.226,137.177 612.893,137.511 616.5,138.5C 621.094,146.534 627.761,148.701 636.5,145C 641.197,141.623 641.53,137.957 637.5,134C 628.994,131.458 620.66,128.458 612.5,125C 604.217,116.35 604.55,108.017 613.5,100C 616.158,98.522 618.825,97.3554 621.5,96.5 Z"/></g>
<g><path style="opacity:0.903" fill="#fefffe" d="M 753.5,96.5 C 776.735,95.2346 787.901,106.235 787,129.5C 781.997,153.087 768.163,160.587 745.5,152C 743.391,150.859 741.558,149.359 740,147.5C 739.5,158.828 739.333,170.162 739.5,181.5C 735.833,181.5 732.167,181.5 728.5,181.5C 728.5,153.5 728.5,125.5 728.5,97.5C 732.167,97.5 735.833,97.5 739.5,97.5C 739.337,99.8568 739.503,102.19 740,104.5C 743.897,100.641 748.397,97.9747 753.5,96.5 Z M 753.5,105.5 C 769.94,105.774 777.44,114.107 776,130.5C 771.504,144.498 762.337,148.998 748.5,144C 739.558,136.777 737.058,127.61 741,116.5C 743.708,111.079 747.875,107.413 753.5,105.5 Z"/></g>
<g><path style="opacity:0.932" fill="#fefffe" d="M 822.5,96.5 C 848.264,96.1044 859.43,108.771 856,134.5C 850.775,150.869 839.608,157.702 822.5,155C 817.105,153.554 812.605,150.721 809,146.5C 808.5,158.162 808.333,169.829 808.5,181.5C 805.167,181.5 801.833,181.5 798.5,181.5C 798.5,153.5 798.5,125.5 798.5,97.5C 801.833,97.5 805.167,97.5 808.5,97.5C 808.336,100.187 808.503,102.854 809,105.5C 812.882,101.429 817.382,98.4293 822.5,96.5 Z M 823.5,105.5 C 836.065,104.574 843.565,110.241 846,122.5C 846.957,138.541 839.457,146.375 823.5,146C 813.926,142.882 808.926,136.216 808.5,126C 809.041,115.7 814.041,108.867 823.5,105.5 Z"/></g>
<g><path style="opacity:0.911" fill="#fefffe" d="M 886.5,96.5 C 913.31,95.1435 925.143,107.81 922,134.5C 919.193,145.307 912.36,152.14 901.5,155C 876.02,157.519 863.854,146.019 865,120.5C 867.5,108.174 874.667,100.174 886.5,96.5 Z M 889.5,105.5 C 909.288,107.049 916.122,117.382 910,136.5C 902.815,146.893 893.648,149.059 882.5,143C 875.449,135.362 873.616,126.529 877,116.5C 879.505,110.822 883.671,107.155 889.5,105.5 Z"/></g>
<g><path style="opacity:0.938" fill="#fefffe" d="M 955.5,96.5 C 957.833,96.5 960.167,96.5 962.5,96.5C 962.5,99.8333 962.5,103.167 962.5,106.5C 954.956,106.017 949.456,109.017 946,115.5C 944.578,128.439 944.078,141.439 944.5,154.5C 941.167,154.5 937.833,154.5 934.5,154.5C 934.5,135.5 934.5,116.5 934.5,97.5C 937.833,97.5 941.167,97.5 944.5,97.5C 944.337,99.8568 944.503,102.19 945,104.5C 947.806,100.853 951.306,98.1859 955.5,96.5 Z"/></g>
<g><path style="opacity:0.941" fill="#fefffe" d="M 662.5,97.5 C 665.833,97.5 669.167,97.5 672.5,97.5C 672.333,109.838 672.5,122.171 673,134.5C 677.287,146.047 685.121,149.213 696.5,144C 698.709,142.127 700.542,139.96 702,137.5C 703.425,124.227 703.925,110.894 703.5,97.5C 706.833,97.5 710.167,97.5 713.5,97.5C 713.5,116.5 713.5,135.5 713.5,154.5C 710.167,154.5 706.833,154.5 703.5,154.5C 703.662,152.473 703.495,150.473 703,148.5C 698.483,153.563 692.816,155.896 686,155.5C 674.212,156.039 666.545,150.706 663,139.5C 662.5,125.504 662.333,111.504 662.5,97.5 Z"/></g>
<g><path style="opacity:0.919" fill="#fefffe" d="M 578.5,135.5 C 589.437,133.938 594.27,138.605 593,149.5C 589.82,155.234 584.987,157.067 578.5,155C 570.581,148.506 570.581,142.006 578.5,135.5 Z"/></g>
</svg>